<?xml version="1.0" standalone="no"?><!DOCTYPE svg PUBLIC "-//W3C//DTD SVG 1.1//EN" "http://www.w3.org/Graphics/SVG/1.1/DTD/svg11.dtd"><svg t="1669164213537" class="icon" viewBox="0 0 1092 1024" version="1.1" xmlns="http://www.w3.org/2000/svg" p-id="2201" xmlns:xlink="http://www.w3.org/1999/xlink" width="213.28125" height="200"><path d="M921.463467 307.746133a109.226667 109.226667 0 0 1 109.226666 109.226667v477.866667a109.226667 109.226667 0 0 1-109.226666 109.226666h-750.933334a109.226667 109.226667 0 0 1-109.226666-109.226666v-477.866667a109.226667 109.226667 0 0 1 109.226666-109.226667z m0 81.92h-750.933334a27.306667 27.306667 0 0 0-27.306666 27.306667v477.866667c0 15.018667 12.219733 27.306667 27.306666 27.306666h750.933334a27.306667 27.306667 0 0 0 27.306666-27.306666v-477.866667a27.306667 27.306667 0 0 0-27.306666-27.306667zM781.9264 507.221333c7.304533 12.4928-10.513067 35.293867-10.513067 35.293867l-245.077333 284.808533a42.5984 42.5984 0 0 1-58.9824 6.485334s-112.8448-137.216-116.736-142.472534c-11.127467-17.8176-24.1664-28.740267-23.825067-49.834666 0.477867-13.653333 17.749333-22.7328 17.749334-22.7328 35.908267-3.140267 93.525333 47.240533 137.4208 81.237333 10.581333 8.192 27.716267 7.509333 36.590933-1.8432 52.770133-50.449067 132.437333-129.706667 194.7648-188.2112 18.705067-18.295467 55.364267-28.535467 68.608-2.730667z m64.443733-363.178666a40.96 40.96 0 1 1 0 81.92h-600.746666a40.96 40.96 0 1 1 0-81.92h600.746666z m-136.533333-136.533334a40.96 40.96 0 1 1 0 81.92h-327.68a40.96 40.96 0 1 1 0-81.92h327.68z" p-id="2202"></path></svg>