<?xml version="1.0" standalone="no"?><!DOCTYPE svg PUBLIC "-//W3C//DTD SVG 1.1//EN" "http://www.w3.org/Graphics/SVG/1.1/DTD/svg11.dtd"><svg t="1675158073131" class="icon" viewBox="0 0 1024 1024" version="1.1" xmlns="http://www.w3.org/2000/svg" p-id="2529" xmlns:xlink="http://www.w3.org/1999/xlink" width="200" height="200"><path d="M512 42.666667a32 32 0 0 1 0 64C288.149333 106.666667 106.666667 288.149333 106.666667 512s181.482667 405.333333 405.333333 405.333333 405.333333-181.482667 405.333333-405.333333a32 32 0 0 1 64 0c0 259.2-210.133333 469.333333-469.333333 469.333333S42.666667 771.2 42.666667 512 252.8 42.666667 512 42.666667z m233.685333 119.466666l2.282667 2.069334 90.496 90.496a32 32 0 0 1 2.090667 42.986666l-2.090667 2.282667-90.496 90.496a32 32 0 0 1-47.338667-42.965333l2.069334-2.282667 35.882666-35.882667H661.333333a138.666667 138.666667 0 0 0-138.581333 133.696L522.666667 448v128a32 32 0 0 1-63.850667 3.072L458.666667 576v-128a202.666667 202.666667 0 0 1 196.906666-202.581333L661.333333 245.333333h77.248l-35.882666-35.882666a32 32 0 0 1-2.069334-42.965334l2.069334-2.282666a32 32 0 0 1 42.986666-2.090667z" fill="#131415" p-id="2530"></path></svg>