<?xml version="1.0" standalone="no"?><!DOCTYPE svg PUBLIC "-//W3C//DTD SVG 1.1//EN" "http://www.w3.org/Graphics/SVG/1.1/DTD/svg11.dtd"><svg t="1669794428953" class="icon" viewBox="0 0 1024 1024" version="1.1" xmlns="http://www.w3.org/2000/svg" p-id="2907" xmlns:xlink="http://www.w3.org/1999/xlink" width="200" height="200"><path d="M71.001077 234.030128c0 14.639418 6.025227 29.189809 16.375969 39.540552 10.351766 10.350742 24.902156 16.376992 39.541575 16.376992 14.644535 0 29.194926-6.02625 39.545668-16.376992 10.350742-10.350742 16.376992-24.901133 16.376992-39.540552 0-14.640442-6.02625-29.189809-16.376992-39.546691-10.350742-10.350742-24.901133-16.375969-39.545668-16.375969-14.640442 0-29.189809 6.025227-39.541575 16.375969C77.027327 204.840318 71.001077 219.390709 71.001077 234.030128L71.001077 234.030128zM71.001077 234.030128" p-id="2908"></path><path d="M63.921845 511.155772c0 14.656815 6.034437 29.221532 16.394389 39.585577 10.366092 10.359952 24.928762 16.395412 39.5866 16.395412 14.653745 0 29.221532-6.03546 39.581484-16.395412 10.364045-10.364045 16.395412-24.928762 16.395412-39.585577 0-14.653745-6.031367-29.221532-16.395412-39.582507-10.359952-10.364045-24.927739-16.394389-39.581484-16.394389-14.658861 0-29.221532 6.030343-39.5866 16.394389C69.956282 481.934241 63.921845 496.501004 63.921845 511.155772L63.921845 511.155772zM63.921845 511.155772" p-id="2909"></path><path d="M63.921845 789.69665c0 14.658861 6.034437 29.222555 16.394389 39.5866 10.366092 10.364045 24.928762 16.394389 39.5866 16.394389 14.653745 0 29.221532-6.030343 39.581484-16.394389 10.364045-10.364045 16.395412-24.928762 16.395412-39.5866 0-14.652721-6.031367-29.216415-16.395412-39.581484-10.359952-10.364045-24.927739-16.395412-39.581484-16.395412-14.658861 0-29.221532 6.031367-39.5866 16.395412C69.956282 760.480234 63.921845 775.044952 63.921845 789.69665L63.921845 789.69665zM63.921845 789.69665" p-id="2910"></path><path d="M959.306582 231.434c0 29.495778-21.88545 53.325509-48.960085 53.325509L329.898569 284.759509c-27.074635 0-49.019437-23.892153-49.019437-53.325509l0 0c0-29.437449 21.886473-53.325509 49.019437-53.325509l580.388577 0C937.421132 178.107467 959.306582 201.995527 959.306582 231.434L959.306582 231.434 959.306582 231.434zM959.306582 231.434" p-id="2911"></path><path d="M959.306582 508.622066c0 29.432333-21.88545 53.325509-48.960085 53.325509L329.898569 561.947576c-27.074635 0-49.019437-23.8942-49.019437-53.325509l0 0c0-29.496801 21.886473-53.326533 49.019437-53.326533l580.388577 0C937.421132 455.237205 959.306582 479.125265 959.306582 508.622066L959.306582 508.622066 959.306582 508.622066zM959.306582 508.622066" p-id="2912"></path><path d="M959.306582 786.988981c0 29.491685-21.88545 53.384861-48.960085 53.384861L329.898569 840.373843c-27.074635 0-49.019437-23.892153-49.019437-53.384861l0 0c0-29.379121 21.886473-53.268204 49.019437-53.268204l580.388577 0C937.421132 733.720777 959.306582 757.609861 959.306582 786.988981L959.306582 786.988981 959.306582 786.988981zM959.306582 786.988981" p-id="2913"></path></svg>