<?xml version="1.0" standalone="no"?><!DOCTYPE svg PUBLIC "-//W3C//DTD SVG 1.1//EN" "http://www.w3.org/Graphics/SVG/1.1/DTD/svg11.dtd"><svg t="1674610046469" class="icon" viewBox="0 0 1024 1024" version="1.1" xmlns="http://www.w3.org/2000/svg" p-id="26311" xmlns:xlink="http://www.w3.org/1999/xlink" width="200" height="200"><path d="M512 64.383234C264.7878 64.383234 64.383234 264.7878 64.383234 512s200.404567 447.616766 447.616766 447.616766 447.616766-200.404567 447.616766-447.616766S759.2122 64.383234 512 64.383234zM691.046707 601.523353 512 601.523353c-24.721118 0-44.761677-20.040559-44.761677-44.761677 0 0 0 0 0-0.001022s0 0 0-0.001022L467.238323 288.191617c0-24.721118 20.040559-44.761677 44.761677-44.761677 24.721118 0 44.761677 20.040559 44.761677 44.761677l0 223.808383 134.28503 0c24.721118 0 44.761677 20.040559 44.761677 44.761677S715.767824 601.523353 691.046707 601.523353z" p-id="26312"></path></svg>