<?xml version="1.0" standalone="no"?><!DOCTYPE svg PUBLIC "-//W3C//DTD SVG 1.1//EN" "http://www.w3.org/Graphics/SVG/1.1/DTD/svg11.dtd"><svg t="1686368249842" class="icon" viewBox="0 0 1024 1024" version="1.1" xmlns="http://www.w3.org/2000/svg" p-id="6610" xmlns:xlink="http://www.w3.org/1999/xlink" width="200" height="200"><path d="M720 192H176a80.096 80.096 0 0 0-80 80v608c0 44.128 35.904 80 80 80h544c44.128 0 80-35.872 80-80V272c0-44.096-35.872-80-80-80z m16 688c0 8.8-7.2 16-16 16H176a16 16 0 0 1-16-16V272a16 16 0 0 1 16-16h544a16 16 0 0 1 16 16v608z" p-id="6611"></path><path d="M848 64H304a32 32 0 0 0 0 64h544a16 16 0 0 1 16 16v608a32 32 0 1 0 64 0V144c0-44.096-35.872-80-80-80z" p-id="6612"></path><path d="M608 360H288a32 32 0 0 0 0 64h320a32 32 0 1 0 0-64z m0 160H288a32 32 0 1 0 0 64h320a32 32 0 1 0 0-64zM480 678.656H288a32 32 0 1 0 0 64h192a32 32 0 1 0 0-64z" p-id="6613"></path></svg>