<?xml version="1.0" standalone="no"?><!DOCTYPE svg PUBLIC "-//W3C//DTD SVG 1.1//EN" "http://www.w3.org/Graphics/SVG/1.1/DTD/svg11.dtd"><svg t="1674610370617" class="icon" viewBox="0 0 1152 1024" version="1.1" xmlns="http://www.w3.org/2000/svg" p-id="28792" xmlns:xlink="http://www.w3.org/1999/xlink" width="225" height="200"><path d="M1138.70922 463.262C1025.93922 271.898 815.62122 144 576.00122 144 336.28122 144 126.00922 271.988 13.29322 463.262a95.998 95.998 0 0 0 0 97.478C126.06322 752.102 336.38122 880 576.00122 880c239.72 0 449.992-127.988 562.708-319.262a95.994 95.994 0 0 0 0-97.476zM576.00122 784c-150.324 0-272-121.654-272-272 0-150.324 121.652-272 272-272 150.324 0 272 121.652 272 272 0 150.324-121.652 272-272 272z m208-272c0 114.876-93.124 208-208 208s-208-93.124-208-208c0-35.416 8.862-68.758 24.472-97.946l-0.002 0.064c0 47.302 38.346 85.646 85.648 85.646s85.648-38.346 85.648-85.646c0-47.302-38.346-85.648-85.648-85.648l-0.064 0.002C507.24322 312.862 540.58522 304 576.00122 304c114.876 0 208 93.124 208 208z" fill="" p-id="28793"></path></svg>