<?xml version="1.0" standalone="no"?><!DOCTYPE svg PUBLIC "-//W3C//DTD SVG 1.1//EN" "http://www.w3.org/Graphics/SVG/1.1/DTD/svg11.dtd"><svg t="1669186304076" class="icon" viewBox="0 0 1024 1024" version="1.1" xmlns="http://www.w3.org/2000/svg" p-id="2201" xmlns:xlink="http://www.w3.org/1999/xlink" width="200" height="200"><path d="M512 512m-299.52 0a299.52 299.52 0 1 0 599.04 0 299.52 299.52 0 1 0-599.04 0Z" p-id="2202"></path><path d="M486.4 0h48.64v125.44H486.4zM234.8544 78.9504l42.112-24.32 62.72 108.6464-42.112 24.32zM58.0608 275.8144l24.32-42.1376 108.6464 62.72-24.32 42.1376zM0 486.4h125.44v48.64H0zM55.8592 746.7264l108.6464-62.72 24.32 42.1376-108.6464 62.72zM235.6736 940.416l62.72-108.6208 42.1376 24.32-62.72 108.6208zM486.4 896h48.64v125.44H486.4zM683.8528 857.0112l42.1376-24.32 62.72 108.6208-42.1376 24.32zM833.8688 724.3776l24.32-42.1376 108.6208 62.7456-24.32 42.1376zM896 486.4h125.44v48.64H896zM833.8944 297.6512l108.6464-62.72 24.32 42.1376-108.672 62.72zM684.288 164.608l62.72-108.6208 42.112 24.32-62.72 108.6464z" p-id="2203"></path></svg>