<?xml version="1.0" standalone="no"?><!DOCTYPE svg PUBLIC "-//W3C//DTD SVG 1.1//EN" "http://www.w3.org/Graphics/SVG/1.1/DTD/svg11.dtd"><svg t="1669360364430" class="icon" viewBox="0 0 1024 1024" version="1.1" xmlns="http://www.w3.org/2000/svg" p-id="2231" xmlns:xlink="http://www.w3.org/1999/xlink" width="200" height="200"><path d="M262.826667 605.866667l1.962666 0.725333 186.026667 57.216 58.026667 193.109333A63.488 63.488 0 0 1 448 938.666667a114.688 114.688 0 0 1-109.866667-81.749334L262.869333 605.866667zM874.666667 85.333333a42.666667 42.666667 0 0 1 42.666666 42.666667v640a42.666667 42.666667 0 0 1-85.333333 0V128a42.666667 42.666667 0 0 1 42.666667-42.666667z m-85.333334 85.333334v554.666666l-554.666666-170.666666V341.333333l554.666666-170.666666z m-597.333333 170.666666v213.333334h-42.666667a42.666667 42.666667 0 0 1-42.666666-42.666667V384a42.666667 42.666667 0 0 1 42.666666-42.666667h42.666667z" p-id="2232"></path></svg>