<?xml version="1.0" standalone="no"?><!DOCTYPE svg PUBLIC "-//W3C//DTD SVG 1.1//EN" "http://www.w3.org/Graphics/SVG/1.1/DTD/svg11.dtd"><svg t="1674612454996" class="icon" viewBox="0 0 1024 1024" version="1.1" xmlns="http://www.w3.org/2000/svg" p-id="46508" xmlns:xlink="http://www.w3.org/1999/xlink" width="200" height="200"><path d="M824.264 95.36c0-23.859 25.043-44.16 48.902-44.16s49.714 20.301 49.714 44.16v190.08c0 23.859-19.054 52.868-42.913 52.868h-190.08c-23.859 0-46.696-25.96-46.696-49.819s22.55-46.249 46.409-46.249h82.025C702.344 175.534 610.22 155.853 512 155.853c-206.775 0-360.398 149.372-360.398 356.147 0 206.775 153.623 358.23 360.398 358.23 206.775 0 357.467-151.455 357.467-358.23 0-23.859 23.634-50.706 53.413-50.706 29.78 0 49.92 26.847 49.92 50.706 0 254.493-206.307 460.8-460.8 460.8-254.493 0-460.8-206.307-460.8-460.8C51.2 257.507 257.507 51.2 512 51.2c122.4 0 226.684 33.296 312.264 117.369 0.358 0.351 0.358-24.052 0-73.209z" p-id="46509"></path></svg>