<?xml version="1.0" standalone="no"?><!DOCTYPE svg PUBLIC "-//W3C//DTD SVG 1.1//EN" "http://www.w3.org/Graphics/SVG/1.1/DTD/svg11.dtd"><svg t="1674182987349" class="icon" viewBox="0 0 1024 1024" version="1.1" xmlns="http://www.w3.org/2000/svg" p-id="2245" xmlns:xlink="http://www.w3.org/1999/xlink" width="200" height="200"><path d="M298.666667 298.666667a213.333333 213.333333 0 1 0 213.333333-213.333334 213.333333 213.333333 0 0 0-213.333333 213.333334zM128 831.573333z m0 0z m0 0z m768 2.56z m0 0z m-768 0z m578.56-275.2h-17.493333a50.346667 50.346667 0 0 0-20.906667 5.12s-14.08 8.106667-26.88 13.653334a331.946667 331.946667 0 0 1-128 25.6 321.706667 321.706667 0 0 1-128-25.6c-12.8-5.546667-27.306667-13.653333-27.306667-13.653334a42.666667 42.666667 0 0 0-20.906666-5.12h-18.346667a219.306667 219.306667 0 0 0-165.12 136.533334 362.666667 362.666667 0 0 0-25.6 134.4 42.666667 42.666667 0 0 0 21.333333 32.426666S268.8 938.666667 512 938.666667s362.666667-76.373333 362.666667-76.373334a42.666667 42.666667 0 0 0 21.333333-32.853333 346.88 346.88 0 0 0-24.746667-132.266667 218.88 218.88 0 0 0-164.693333-139.946666zM896 829.866667z m0 0z" p-id="2246"></path></svg>