<?xml version="1.0" standalone="no"?><!DOCTYPE svg PUBLIC "-//W3C//DTD SVG 1.1//EN" "http://www.w3.org/Graphics/SVG/1.1/DTD/svg11.dtd"><svg t="1669626306018" class="icon" viewBox="0 0 1024 1024" version="1.1" xmlns="http://www.w3.org/2000/svg" p-id="2288" xmlns:xlink="http://www.w3.org/1999/xlink" width="200" height="200"><path d="M512 288c-124.8 0-224 99.2-224 224s99.2 224 224 224 224-99.2 224-224S636.8 288 512 288zM512 688c-96 0-176-80-176-176s80-176 176-176 176 80 176 176S608 688 512 688z" p-id="2289"></path><path d="M768 371.2a1.6 1.6 0 1 0 102.4 0 1.6 1.6 0 1 0-102.4 0Z" p-id="2290"></path><path d="M864 224l-96 0-22.4-67.2c-6.4-16-25.6-28.8-41.6-28.8l-384 0c-19.2 0-35.2 12.8-41.6 28.8l-22.4 67.2-96 0c-54.4 0-96 41.6-96 96l0 448c0 54.4 44.8 96 96 96l704 0c54.4 0 96-41.6 96-96l0-448C960 265.6 918.4 224 864 224zM912 768c0 25.6-22.4 48-48 48l-704 0c-25.6 0-48-22.4-48-48l0-448c0-25.6 22.4-48 48-48l96 0 35.2 0 9.6-32 22.4-64 377.6 0 22.4 64 9.6 32 35.2 0 96 0c25.6 0 48 22.4 48 48L912 768z" p-id="2291"></path></svg>