<?xml version="1.0" standalone="no"?><!DOCTYPE svg PUBLIC "-//W3C//DTD SVG 1.1//EN" "http://www.w3.org/Graphics/SVG/1.1/DTD/svg11.dtd"><svg t="1669617705240" class="icon" viewBox="0 0 1024 1024" version="1.1" xmlns="http://www.w3.org/2000/svg" p-id="2243" xmlns:xlink="http://www.w3.org/1999/xlink" width="200" height="200"><path d="M883.4 163.2H136.7c-40.5 0-72.8 24.9-72.8 55.6v583.9c0 31.9 33.3 57.9 74 57.9h751.2c35.5 3.4 67.2-22.4 71-57.9V218.8c0-30.7-34.5-55.6-77.1-55.6h0.4zM358.9 293.4c40.7-0.1 73.9 32.8 74 73.5 0.1 40.7-32.8 73.9-73.5 74s-73.9-32.8-74-73.5v-0.2c0-40.7 32.9-73.6 73.5-73.8z m457 483.8H209.5c-23.5 0-28.2-13.6-12.4-29.8l130.1-136.9c16.7-16.5 42.7-19 62.2-5.9l95.8 67.6c19.2 13.3 45.3 9.8 60.4-8l221.9-268.9c14.6-17.6 29.1-13.6 32.4 8.5l50.7 334c2.9 18.7-10 36.2-28.7 39.1-1.9 0.3-4 0.4-6 0.3z" fill="" p-id="2244"></path></svg>