<?xml version="1.0" standalone="no"?><!DOCTYPE svg PUBLIC "-//W3C//DTD SVG 1.1//EN" "http://www.w3.org/Graphics/SVG/1.1/DTD/svg11.dtd"><svg t="1669126963369" class="icon" viewBox="0 0 1024 1024" version="1.1" xmlns="http://www.w3.org/2000/svg" p-id="2877" xmlns:xlink="http://www.w3.org/1999/xlink" width="200" height="200"><path d="M314.9 533.9h38.9c28.7 0 51.9-23.2 51.9-51.9s-23.2-51.9-51.9-51.9h-38.9c-28.7 0-51.9 23.2-51.9 51.9s23.2 51.9 51.9 51.9zM492.5 533.9h38.9c28.7 0 51.9-23.2 51.9-51.9s-23.2-51.9-51.9-51.9h-38.9c-28.7 0-51.9 23.2-51.9 51.9 0.1 28.7 23.3 51.9 51.9 51.9zM670.2 533.9h38.9c28.7 0 51.9-23.2 51.9-51.9s-23.2-51.9-51.9-51.9h-38.9c-28.7 0-51.9 23.2-51.9 51.9 0.1 28.7 23.3 51.9 51.9 51.9zM314.9 732.8h38.9c28.7 0 51.9-23.2 51.9-51.9S382.5 629 353.8 629h-38.9c-28.7 0-51.9 23.2-51.9 51.9s23.2 51.9 51.9 51.9zM492.5 732.8h38.9c28.7 0 51.9-23.2 51.9-51.9S560.1 629 531.4 629h-38.9c-28.7 0-51.9 23.2-51.9 51.9 0.1 28.7 23.3 51.9 51.9 51.9zM670.2 732.8h38.9c28.7 0 51.9-23.2 51.9-51.9S737.8 629 709.1 629h-38.9c-28.7 0-51.9 23.2-51.9 51.9 0.1 28.7 23.3 51.9 51.9 51.9z" p-id="2878"></path><path d="M875.2 150h-51.9v-25.9c0-14.3-11.6-25.9-25.9-25.9h-51.9c-14.3 0-25.9 11.6-25.9 25.9V150h-415v-25.9c0-14.3-11.6-25.9-25.9-25.9h-51.9c-14.3 0-25.9 11.6-25.9 25.9V150H149c-28.7 0-51.9 23.2-51.9 51.9v674.4c0 28.7 23.2 51.9 51.9 51.9h726.3c28.7 0 51.9-23.2 51.9-51.9V201.9c-0.2-28.6-23.4-51.9-52-51.9z m-43.9 681.5H190.7v-484h640.6v484z" p-id="2879"></path></svg>