<?xml version="1.0" standalone="no"?><!DOCTYPE svg PUBLIC "-//W3C//DTD SVG 1.1//EN" "http://www.w3.org/Graphics/SVG/1.1/DTD/svg11.dtd"><svg t="1674643469450" class="icon" viewBox="0 0 1024 1024" version="1.1" xmlns="http://www.w3.org/2000/svg" p-id="4760" xmlns:xlink="http://www.w3.org/1999/xlink" width="200" height="200"><path d="M517.12 76.8c-257.536 0-465.92 180.224-465.92 402.432 0 98.816 41.472 189.952 110.08 259.584 9.728 10.24 14.848 24.064 11.776 37.888l-27.648 138.752c-3.584 18.432 16.384 32.256 32.256 22.016l128-81.408c11.264-7.168 25.088-8.192 37.376-4.096 53.76 18.944 112.64 29.184 174.08 29.184 257.536 0 465.92-180.224 465.92-402.432S774.656 76.8 517.12 76.8z m-211.968 465.92c-35.328 0-63.488-28.672-63.488-63.488s28.672-63.488 63.488-63.488S368.64 443.904 368.64 479.232 340.48 542.72 305.152 542.72z m211.968 0c-35.328 0-63.488-28.672-63.488-63.488s28.672-63.488 63.488-63.488 63.488 28.672 63.488 63.488S552.448 542.72 517.12 542.72z m211.968 0c-35.328 0-63.488-28.672-63.488-63.488s28.672-63.488 63.488-63.488c35.328 0 63.488 28.672 63.488 63.488s-28.672 63.488-63.488 63.488z" fill="#90949E" p-id="4761"></path></svg>