<?xml version="1.0" standalone="no"?><!DOCTYPE svg PUBLIC "-//W3C//DTD SVG 1.1//EN" "http://www.w3.org/Graphics/SVG/1.1/DTD/svg11.dtd"><svg t="1674609796006" class="icon" viewBox="0 0 1024 1024" version="1.1" xmlns="http://www.w3.org/2000/svg" p-id="20215" xmlns:xlink="http://www.w3.org/1999/xlink" width="200" height="200"><path d="M541.4 212c90.9 90.8 180.4 180.1 273 272.5-3 1.8-7.6 3.5-10.8 6.7-135.5 134-271.1 267.9-405.8 402.6-17.6 17.6-36.5 28.8-60.3 35.5-92.4 26.2-184.5 53.8-276.7 80.8-20.6 6-36.7 0.6-47-15.4-6.8-10.4-6.8-22-3.5-33.4 29.5-100.8 59-201.6 88.9-302.3 2.2-7.3 6.8-14.7 12.2-20 140.5-139.3 281.2-278.4 421.8-417.5 3.1-3.1 5.7-6.6 8.2-9.5zM165.6 702.5c-1.4 4.2-2.5 7.2-3.4 10.3-12.5 42.2-23.4 85-37.9 126.5-7.6 21.6-5.5 36.9 13.4 49.7 3.5 2.4 6.5 5.7 9.1 9.1 4.1 5.4 8.7 5.5 14.8 3.7 34.5-10.4 69.2-20.5 103.8-30.7 17.3-5.1 34.6-10.1 53.2-15.6-2.9-3.3-4.5-5.9-6.7-7.5-14.2-10.3-20.6-24-19.3-41.6 0.5-6.6-0.4-13.2-0.8-19.9-1.1-18.4-2.3-36.8-3.5-55.6-25.3-2.1-49.4-4.6-73.5-5.8-17.6-0.9-34.2-2.7-45-19.1-0.6-1.1-1.9-1.7-4.2-3.5z m0 0M947.5 331.4c-86-85.8-171.8-171.6-258.5-258.2 20.9-19 37.7-43.8 65.1-57 33-15.9 74.1-8.4 103.4 20.4 42.5 41.9 84.9 83.9 126.6 126.7 38.5 39.5 37.9 92.8-0.5 132.3-12 12.4-24.4 24.2-36.1 35.8z m0 0M912.4 382.2c-19.3 18.1-39.4 36.9-59 55.2-90.2-90.2-179.8-179.8-270-269.9 19.8-18.5 39.8-37.3 58.9-55.3 90.2 90 179.8 179.6 270.1 270z m0 0" fill="" p-id="20216"></path></svg>