<?xml version="1.0" standalone="no"?><!DOCTYPE svg PUBLIC "-//W3C//DTD SVG 1.1//EN" "http://www.w3.org/Graphics/SVG/1.1/DTD/svg11.dtd"><svg t="1669617494478" class="icon" viewBox="0 0 1068 1024" version="1.1" xmlns="http://www.w3.org/2000/svg" p-id="2280" xmlns:xlink="http://www.w3.org/1999/xlink" width="208.59375" height="200"><path d="M-15.042048 759.563264" p-id="2281"></path><path d="M818.241024 375.863296c0-4.145152 1.386496-8.756224 1.837056-12.9024 1.386496-3.224576 1.463296-7.801856 2.768896-11.9808 9.750528-31.286272 39.614464-53.429248 74.616832-53.429248 42.84416 0 78.313472 35.470336 78.313472 78.312448 0 42.835968-35.469312 78.299136-78.313472 78.299136C854.171136 454.163456 818.241024 418.699264 818.241024 375.863296z" p-id="2282"></path><path d="M148.023808 773.42208c0 17.882112 21.650432 30.362624 46.058496 30.362624l476.751872 0c23.959552 0 71.866368-12.480512 71.866368-30.362624l0-31.842304c0-17.000448-47.905792-22.503424-71.866368-22.503424L194.082304 719.076352c-24.408064 0-46.058496 4.518912-46.058496 22.503424L148.023808 773.42208z" p-id="2283"></path><path d="M29.179392 260.701184c0 222.942208 181.029888 405.815296 403.97312 405.815296 146.942976 0 274.9952-85.673984 345.473024-206.35648 27.635712 37.302272 69.097472 60.33408 118.838272 60.33408 79.235072 0 143.7184-64.944128 143.7184-144.169984 0-79.233024-64.483328-144.1792-143.7184-144.1792-21.648384 0-42.37312 14.74048-60.797952 23.487488 0-13.357056-1.84832-4.140032-3.224576-45.597696L32.402944 210.034688C31.027712 251.949056 29.179392 244.122624 29.179392 260.701184z" p-id="2284"></path><path d="M1079.420416 759.563264" p-id="2285"></path></svg>