<?xml version="1.0" standalone="no"?><!DOCTYPE svg PUBLIC "-//W3C//DTD SVG 1.1//EN" "http://www.w3.org/Graphics/SVG/1.1/DTD/svg11.dtd"><svg t="1669544223833" class="icon" viewBox="0 0 1024 1024" version="1.1" xmlns="http://www.w3.org/2000/svg" p-id="2902" xmlns:xlink="http://www.w3.org/1999/xlink" width="200" height="200"><path d="M940.513333 512a486.42 486.42 0 0 1-27.126666 42.3c-30.993333 43.56-75.62 93.766667-136.44 153.48-63.013333 61.866667-145.153333 135.733333-251.133334 225.806667a21.333333 21.333333 0 0 1-27.626666 0c-106-90.073333-188.12-163.94-251.133334-225.806667-60.82-59.713333-105.446667-109.92-136.44-153.48A486.42 486.42 0 0 1 83.486667 512H234.666667a21.333333 21.333333 0 0 0 15.086666-6.246667l64.4-64.42 114.766667 229.526667A21.333333 21.333333 0 0 0 448 682.666667h1.126667a21.333333 21.333333 0 0 0 18.873333-13.84L578.8 373.333333l106.12 212.24a21.333333 21.333333 0 0 0 34.166667 5.546667L798.166667 512zM62.98 469.333333h162.853333l79.08-79.086666a21.333333 21.333333 0 0 1 34.166667 5.546666L445.2 608.033333 556 312.506667a21.333333 21.333333 0 0 1 39.053333-2.046667L709.846667 540l64.4-64.406667A21.333333 21.333333 0 0 1 789.333333 469.333333h171.686667a281.12 281.12 0 0 0 9.56-28.733333c8.926667-32.666667 10.753333-63.333333 10.753333-99.293333a256 256 0 0 0-469.333333-141.546667A256 256 0 0 0 42.666667 341.333333c0 35.96 1.826667 66.606667 10.753333 99.293334A281.12 281.12 0 0 0 62.98 469.333333z" fill="#5C5C66" p-id="2903"></path></svg>