<?xml version="1.0" standalone="no"?><!DOCTYPE svg PUBLIC "-//W3C//DTD SVG 1.1//EN" "http://www.w3.org/Graphics/SVG/1.1/DTD/svg11.dtd"><svg t="1669170449235" class="icon" viewBox="0 0 1024 1024" version="1.1" xmlns="http://www.w3.org/2000/svg" p-id="2558" xmlns:xlink="http://www.w3.org/1999/xlink" width="200" height="200"><path d="M510.563278 65.99404c-246.704798 0-446.604594 199.925379-446.604594 446.579011 0 246.648516 199.899796 446.573895 446.63427 446.573895 246.619864 0 446.574918-199.925379 446.574918-446.573895C957.166849 265.918395 757.212818 65.99404 510.563278 65.99404zM260.657578 583.67032c-39.266305 0-71.098291-31.830963-71.100338-71.097268l0 0 0-0.001023c0 0 0-0.001023 0-0.001023 0-39.267329 31.833009-71.100338 71.100338-71.100338 39.267329 0 71.100338 31.833009 71.100338 71.100338S299.924907 583.67032 260.657578 583.67032zM511.420809 583.67032c-39.267329 0-71.100338-31.833009-71.100338-71.100338s31.833009-71.100338 71.100338-71.100338c39.267329 0 71.100338 31.833009 71.100338 71.100338S550.688137 583.67032 511.420809 583.67032zM765.455549 583.67032c-39.267329 0-71.100338-31.833009-71.100338-71.100338s31.833009-71.100338 71.100338-71.100338c39.267329 0 71.100338 31.833009 71.100338 71.100338S804.722878 583.67032 765.455549 583.67032z" p-id="2559"></path></svg>