<?xml version="1.0" standalone="no"?><!DOCTYPE svg PUBLIC "-//W3C//DTD SVG 1.1//EN" "http://www.w3.org/Graphics/SVG/1.1/DTD/svg11.dtd"><svg t="1674274584544" class="icon" viewBox="0 0 1024 1024" version="1.1" xmlns="http://www.w3.org/2000/svg" p-id="12364" xmlns:xlink="http://www.w3.org/1999/xlink" width="200" height="200"><path d="M419.072 95.488a384 384 0 0 0 509.44 509.44C886.101333 795.904 715.733333 938.666667 512 938.666667 276.352 938.666667 85.333333 747.648 85.333333 512c0-203.733333 142.762667-374.101333 333.738667-416.512z m355.925333 2.261333L810.666667 106.666667v42.666666l-35.669334 8.917334a85.333333 85.333333 0 0 0-62.08 62.08L704 256h-42.666667l-8.917333-35.669333a85.333333 85.333333 0 0 0-62.08-62.08L554.666667 149.333333v-42.666666l35.669333-8.917334A85.333333 85.333333 0 0 0 652.373333 35.669333L661.333333 0h42.666667l8.917333 35.669333a85.333333 85.333333 0 0 0 62.08 62.08z m213.333334 213.333334L1024 320v42.666667l-35.669333 8.917333a85.333333 85.333333 0 0 0-62.08 62.08L917.333333 469.333333h-42.666666l-8.917334-35.669333a85.333333 85.333333 0 0 0-62.08-62.08L768 362.666667v-42.666667l35.669333-8.917333a85.333333 85.333333 0 0 0 62.08-62.08L874.666667 213.333333h42.666666l8.917334 35.669334a85.333333 85.333333 0 0 0 62.08 62.08z" p-id="12365"></path></svg>