<?xml version="1.0" standalone="no"?><!DOCTYPE svg PUBLIC "-//W3C//DTD SVG 1.1//EN" "http://www.w3.org/Graphics/SVG/1.1/DTD/svg11.dtd"><svg t="1675161410837" class="icon" viewBox="0 0 1024 1024" version="1.1" xmlns="http://www.w3.org/2000/svg" p-id="2221" xmlns:xlink="http://www.w3.org/1999/xlink" width="200" height="200"><path d="M426.666667 0H42.666667A42.666667 42.666667 0 0 0 0 42.666667V426.666667a42.666667 42.666667 0 0 0 42.666667 42.666666H426.666667a42.666667 42.666667 0 0 0 42.666666-42.666666V42.666667A42.666667 42.666667 0 0 0 426.666667 0z m-42.666667 384H85.333333V85.333333h298.666667v298.666667z m42.666667 170.666667H42.666667A42.666667 42.666667 0 0 0 0 597.333333v384A42.666667 42.666667 0 0 0 42.666667 1024H426.666667a42.666667 42.666667 0 0 0 42.666666-42.666667V597.333333a42.666667 42.666667 0 0 0-42.666666-42.666666zM384 938.666667H85.333333V640h298.666667V938.666667z m597.333333-938.666667H597.333333a42.666667 42.666667 0 0 0-42.666666 42.666667V426.666667a42.666667 42.666667 0 0 0 42.666666 42.666666h384A42.666667 42.666667 0 0 0 1024 426.666667V42.666667A42.666667 42.666667 0 0 0 981.333333 0zM938.666667 384H640V85.333333H938.666667v298.666667zM170.666667 170.666667h128v128H170.666667V170.666667z m0 554.666666h128V853.333333H170.666667v-128z m725.333333-170.666666H1024V682.666667h-128v-128z m0 341.333333h-85.333333V1024H1024v-213.333333h-128v85.333333z m-341.333333 0H682.666667V1024h-128v-128z m170.666666-725.333333H853.333333v128h-128V170.666667z m-170.666666 384H682.666667V682.666667h-128v-128zM682.666667 682.666667h128v213.333333H682.666667V682.666667z" p-id="2222"></path></svg>