<?xml version="1.0" standalone="no"?><!DOCTYPE svg PUBLIC "-//W3C//DTD SVG 1.1//EN" "http://www.w3.org/Graphics/SVG/1.1/DTD/svg11.dtd"><svg t="1669164870986" class="icon" viewBox="0 0 1097 1024" version="1.1" xmlns="http://www.w3.org/2000/svg" p-id="2666" xmlns:xlink="http://www.w3.org/1999/xlink" width="214.2578125" height="200"><path d="M256 256q0-30.285714-21.428571-51.714286T182.857143 182.857143t-51.714286 21.428571T109.714286 256t21.428571 51.714286T182.857143 329.142857t51.714286-21.428571T256 256z m609.714286 329.142857q0 30.285714-21.142857 51.428572l-280.571429 281.142857q-22.285714 21.142857-52 21.142857-30.285714 0-51.428571-21.142857L52 508.571429q-21.714286-21.142857-36.857143-57.714286T0 384V146.285714q0-29.714286 21.714286-51.428571t51.428571-21.714286h237.714286q30.285714 0 66.857143 15.142857T436 125.142857l408.571429 408q21.142857 22.285714 21.142857 52z m219.428571 0q0 30.285714-21.142857 51.428572l-280.571429 281.142857q-22.285714 21.142857-52 21.142857-20.571429 0-33.714285-8t-30.285715-25.714286l268.571429-268.571428q21.142857-21.142857 21.142857-51.428572 0-29.714286-21.142857-52L527.428571 125.142857q-21.714286-21.714286-58.285714-36.857143T402.285714 73.142857h128q30.285714 0 66.857143 15.142857t58.285714 36.857143l408.571429 408q21.142857 22.285714 21.142857 52z" p-id="2667"></path></svg>