<?xml version="1.0" standalone="no"?><!DOCTYPE svg PUBLIC "-//W3C//DTD SVG 1.1//EN" "http://www.w3.org/Graphics/SVG/1.1/DTD/svg11.dtd"><svg t="1669170420386" class="icon" viewBox="0 0 1024 1024" version="1.1" xmlns="http://www.w3.org/2000/svg" p-id="2404" xmlns:xlink="http://www.w3.org/1999/xlink" width="200" height="200"><path d="M512 85.333333c235.637333 0 426.666667 191.029333 426.666667 426.666667S747.637333 938.666667 512 938.666667a424.778667 424.778667 0 0 1-219.125333-60.501334 2786.56 2786.56 0 0 0-20.053334-11.765333l-104.405333 28.48c-23.893333 6.506667-45.802667-15.413333-39.285333-39.296l28.437333-104.288c-11.008-18.688-18.218667-31.221333-21.802667-37.909333A424.885333 424.885333 0 0 1 85.333333 512C85.333333 276.362667 276.362667 85.333333 512 85.333333z m-102.218667 549.76a32 32 0 1 0-40.917333 49.216A223.178667 223.178667 0 0 0 512 736c52.970667 0 103.189333-18.485333 143.104-51.669333a32 32 0 1 0-40.906667-49.216A159.189333 159.189333 0 0 1 512 672a159.189333 159.189333 0 0 1-102.218667-36.906667z" p-id="2405"></path></svg>